<svg width="18" height="16" viewBox="0 0 18 16" fill="none" xmlns="http://www.w3.org/2000/svg">
<mask id="path-1-inside-1_1530_142856" fill="white">
<path fill-rule="evenodd" clip-rule="evenodd" d="M6.5 2.5C6.5 1.11929 7.61929 0 9 0C10.3807 0 11.5 1.11929 11.5 2.5V13.5C11.5 14.8807 10.3807 16 9 16C7.61929 16 6.5 14.8807 6.5 13.5V2.5ZM0 11.5C0 10.1193 1.11929 9 2.5 9C3.88071 9 5 10.1193 5 11.5V13.5C5 14.8807 3.88071 16 2.5 16C1.11929 16 0 14.8807 0 13.5V11.5ZM15.5 5C14.1193 5 13 6.11929 13 7.5V13.5C13 14.8807 14.1193 16 15.5 16C16.8807 16 18 14.8807 18 13.5V7.5C18 6.11929 16.8807 5 15.5 5Z"/>
</mask>
<path fill-rule="evenodd" clip-rule="evenodd" d="M6.5 2.5C6.5 1.11929 7.61929 0 9 0C10.3807 0 11.5 1.11929 11.5 2.5V13.5C11.5 14.8807 10.3807 16 9 16C7.61929 16 6.5 14.8807 6.5 13.5V2.5ZM0 11.5C0 10.1193 1.11929 9 2.5 9C3.88071 9 5 10.1193 5 11.5V13.5C5 14.8807 3.88071 16 2.5 16C1.11929 16 0 14.8807 0 13.5V11.5ZM15.5 5C14.1193 5 13 6.11929 13 7.5V13.5C13 14.8807 14.1193 16 15.5 16C16.8807 16 18 14.8807 18 13.5V7.5C18 6.11929 16.8807 5 15.5 5Z" fill="black"/>
<path d="M9 -1.5C6.79086 -1.5 5 0.290861 5 2.5H8C8 1.94772 8.44772 1.5 9 1.5V-1.5ZM13 2.5C13 0.290861 11.2091 -1.5 9 -1.5V1.5C9.55228 1.5 10 1.94772 10 2.5H13ZM13 13.5V2.5H10V13.5H13ZM9 17.5C11.2091 17.5 13 15.7091 13 13.5H10C10 14.0523 9.55228 14.5 9 14.5V17.5ZM5 13.5C5 15.7091 6.79086 17.5 9 17.5V14.5C8.44772 14.5 8 14.0523 8 13.5H5ZM5 2.5V13.5H8V2.5H5ZM2.5 7.5C0.290861 7.5 -1.5 9.29086 -1.5 11.5H1.5C1.5 10.9477 1.94772 10.5 2.5 10.5V7.5ZM6.5 11.5C6.5 9.29086 4.70914 7.5 2.5 7.5V10.5C3.05228 10.5 3.5 10.9477 3.5 11.5H6.5ZM6.5 13.5V11.5H3.5V13.5H6.5ZM2.5 17.5C4.70914 17.5 6.5 15.7091 6.5 13.5H3.5C3.5 14.0523 3.05228 14.5 2.5 14.5V17.5ZM-1.5 13.5C-1.5 15.7091 0.290861 17.5 2.5 17.5V14.5C1.94772 14.5 1.5 14.0523 1.5 13.5H-1.5ZM-1.5 11.5V13.5H1.5V11.5H-1.5ZM14.5 7.5C14.5 6.94772 14.9477 6.5 15.5 6.5V3.5C13.2909 3.5 11.5 5.29086 11.5 7.5H14.5ZM14.5 13.5V7.5H11.5V13.5H14.5ZM15.5 14.5C14.9477 14.5 14.5 14.0523 14.5 13.5H11.5C11.5 15.7091 13.2909 17.5 15.5 17.5V14.5ZM16.5 13.5C16.5 14.0523 16.0523 14.5 15.5 14.5V17.5C17.7091 17.5 19.5 15.7091 19.5 13.5H16.5ZM16.5 7.5V13.5H19.5V7.5H16.5ZM15.5 6.5C16.0523 6.5 16.5 6.94772 16.5 7.5H19.5C19.5 5.29086 17.7091 3.5 15.5 3.5V6.5Z" fill="black" mask="url(#path-1-inside-1_1530_142856)"/>
</svg>
