<svg width="18" height="18" viewBox="0 0 18 18" fill="none" xmlns="http://www.w3.org/2000/svg">
<path fill-rule="evenodd" clip-rule="evenodd" d="M3 0C3.41421 0 3.75 0.335786 3.75 0.75V2.84451C5.04392 3.17755 6 4.35212 6 5.75C6 7.14788 5.04392 8.32246 3.75 8.65549L3.75 16.75C3.75 17.1642 3.41421 17.5 3 17.5C2.58579 17.5 2.25 17.1642 2.25 16.75L2.25 8.65549C0.95608 8.32245 0 7.14788 0 5.75C0 4.35212 0.95608 3.17755 2.25 2.84451V0.75C2.25 0.335786 2.58579 0 3 0ZM15 0C15.4142 0 15.75 0.335786 15.75 0.75V8.84451C17.0439 9.17754 18 10.3521 18 11.75C18 13.1479 17.0439 14.3225 15.75 14.6555V16.75C15.75 17.1642 15.4142 17.5 15 17.5C14.5858 17.5 14.25 17.1642 14.25 16.75V14.6555C12.9561 14.3225 12 13.1479 12 11.75C12 10.3521 12.9561 9.17755 14.25 8.84451V0.75C14.25 0.335786 14.5858 0 15 0Z" fill="#FFC100"/>
</svg>
