<svg width="15" height="15" viewBox="0 0 15 15" fill="none" xmlns="http://www.w3.org/2000/svg">
<path d="M0.333344 14.6667C0.333344 13.2522 0.895247 11.8956 1.89544 10.8955C2.89563 9.89526 4.25219 9.33335 5.66668 9.33335C7.08116 9.33335 8.43772 9.89526 9.43791 10.8955C10.4381 11.8956 11 13.2522 11 14.6667H0.333344ZM5.66668 8.66669C3.45668 8.66669 1.66668 6.87669 1.66668 4.66669C1.66668 2.45669 3.45668 0.666687 5.66668 0.666687C7.87668 0.666687 9.66668 2.45669 9.66668 4.66669C9.66668 6.87669 7.87668 8.66669 5.66668 8.66669ZM10.5753 10.1554C11.5951 10.4175 12.5062 10.9946 13.1789 11.8046C13.8516 12.6146 14.2516 13.6161 14.322 14.6667H12.3333C12.3333 12.9267 11.6667 11.3427 10.5753 10.1554ZM9.22668 8.63802C9.78534 8.13834 10.2321 7.52624 10.5377 6.84185C10.8433 6.15746 11.0009 5.41621 11 4.66669C11.0014 3.75566 10.7684 2.8596 10.3233 2.06469C11.0784 2.21641 11.7577 2.62494 12.2456 3.22082C12.7336 3.8167 13.0002 4.56317 13 5.33335C13.0002 5.80833 12.8988 6.27786 12.7027 6.71047C12.5067 7.14308 12.2204 7.52878 11.863 7.84172C11.5057 8.15465 11.0857 8.38759 10.631 8.52493C10.1763 8.66227 9.69748 8.70082 9.22668 8.63802Z" fill="white"/>
</svg>
