<svg width="20" height="18" viewBox="0 0 20 18" fill="none" xmlns="http://www.w3.org/2000/svg">
<path d="M8.31299 8.56601L16.253 0.626007L18.374 2.74701L16.96 4.16101L19.081 6.28201L15.546 9.81801L13.425 7.69701L10.435 10.687C10.9855 11.7463 11.1391 12.9676 10.8679 14.1302C10.5966 15.2928 9.91854 16.3201 8.95609 17.0264C7.99363 17.7327 6.81029 18.0715 5.61985 17.9816C4.42942 17.8916 3.31041 17.3789 2.46499 16.536C1.61914 15.6915 1.1038 14.572 1.01235 13.3802C0.920892 12.1885 1.25938 11.0034 1.96647 10.0397C2.67356 9.07607 3.70246 8.39758 4.86673 8.12723C6.031 7.85687 7.25361 8.01254 8.31299 8.56601ZM7.41399 14.414C7.60501 14.2295 7.75737 14.0088 7.86219 13.7648C7.96701 13.5208 8.02218 13.2584 8.02449 12.9928C8.0268 12.7273 7.97619 12.4639 7.87563 12.2181C7.77507 11.9723 7.62656 11.749 7.43878 11.5612C7.25099 11.3734 7.02769 11.2249 6.7819 11.1244C6.5361 11.0238 6.27274 10.9732 6.00718 10.9755C5.74163 10.9778 5.47919 11.033 5.23518 11.1378C4.99117 11.2426 4.77048 11.395 4.58599 11.586C4.22167 11.9632 4.02008 12.4684 4.02464 12.9928C4.0292 13.5172 4.23953 14.0188 4.61035 14.3896C4.98117 14.7605 5.48279 14.9708 6.00718 14.9754C6.53158 14.9799 7.03678 14.7783 7.41399 14.414Z" fill="black"/>
</svg>
