<svg width="4" height="16" viewBox="0 0 4 16" fill="none" xmlns="http://www.w3.org/2000/svg">
<path fill-rule="evenodd" clip-rule="evenodd" d="M2 0.75C1.30964 0.75 0.75 1.30964 0.75 2C0.75 2.69036 1.30964 3.25 2 3.25C2.69036 3.25 3.25 2.69036 3.25 2C3.25 1.30964 2.69036 0.75 2 0.75ZM2 6.75C1.30964 6.75 0.75 7.30964 0.75 8C0.75 8.69036 1.30964 9.25 2 9.25C2.69036 9.25 3.25 8.69036 3.25 8C3.25 7.30964 2.69036 6.75 2 6.75ZM2 12.75C1.30964 12.75 0.75 13.3096 0.75 14C0.75 14.6904 1.30964 15.25 2 15.25C2.69036 15.25 3.25 14.6904 3.25 14C3.25 13.3096 2.69036 12.75 2 12.75Z" fill="black"/>
</svg>
