<svg width="20" height="20" viewBox="0 0 20 20" fill="none" xmlns="http://www.w3.org/2000/svg">
<path d="M0.923077 13.6388C0.413538 13.6388 0 14.0462 0 14.5481C0 15.05 0.413538 15.4574 0.923077 15.4574V13.6388ZM11.7508 18.1851L12.5492 18.6416C12.7145 18.3597 12.7154 18.0133 12.5511 17.7314C12.3858 17.4495 12.0812 17.2759 11.7508 17.2759V18.1851ZM8.55691 18.1851V17.2759C8.22645 17.2759 7.92186 17.4495 7.75663 17.7314C7.59232 18.0133 7.59323 18.3597 7.75846 18.6416L8.55691 18.1851ZM19.3846 13.6388C12.1749 13.6388 0.923077 13.6388 0.923077 13.6388V15.4574H19.3846C19.3846 15.4574 20.7692 14.5481 19.3846 13.6388ZM0.923077 15.4574C2.96215 15.4574 4.61538 13.8289 4.61538 11.8203H2.76923C2.76923 12.8251 1.94308 13.6388 0.923077 13.6388V15.4574ZM4.61538 11.8203V7.27405H2.76923V11.8203H4.61538ZM4.61538 7.27405C4.61538 4.26077 7.09477 1.81851 10.1538 1.81851V0C6.07569 0 2.76923 3.25696 2.76923 7.27405H4.61538ZM10.1538 1.81851C13.2129 1.81851 15.6923 4.26077 15.6923 7.27405H17.5385C17.5385 3.25696 14.232 0 10.1538 0V1.81851ZM15.6923 7.27405V11.8203H17.5385V7.27405H15.6923ZM15.6923 11.8203C15.6923 13.8289 17.3455 15.4574 19.3846 15.4574C19.3846 15.4574 20.7692 14.5481 19.3846 13.6388C18.3646 13.6388 17.5385 12.8251 17.5385 11.8203H15.6923ZM10.9523 17.7287C10.7871 18.0096 10.4834 18.1815 10.1538 18.1815V20C11.1415 20 12.0535 19.4826 12.5492 18.6416L10.9523 17.7287ZM10.1538 18.1815C9.82431 18.1815 9.52062 18.0096 9.35539 17.7287L7.75846 18.6416C8.25415 19.4826 9.16615 20 10.1538 20V18.1815ZM8.55691 19.0944H11.7508V17.2759H8.55691V19.0944Z" fill="black"/>
<path d="M0.923077 13.6388C0.413538 13.6388 0 14.0462 0 14.5481C0 15.05 0.413538 15.4574 0.923077 15.4574V13.6388ZM11.7508 18.1851L12.5492 18.6416C12.7145 18.3597 12.7154 18.0133 12.5511 17.7314C12.3858 17.4495 12.0812 17.2759 11.7508 17.2759V18.1851ZM8.55691 18.1851V17.2759C8.22645 17.2759 7.92186 17.4495 7.75663 17.7314C7.59232 18.0133 7.59323 18.3597 7.75846 18.6416L8.55691 18.1851ZM19.3846 13.6388C12.1749 13.6388 0.923077 13.6388 0.923077 13.6388V15.4574H19.3846C19.3846 15.4574 20.7692 14.5481 19.3846 13.6388ZM0.923077 15.4574C2.96215 15.4574 4.61538 13.8289 4.61538 11.8203H2.76923C2.76923 12.8251 1.94308 13.6388 0.923077 13.6388V15.4574ZM4.61538 11.8203V7.27405H2.76923V11.8203H4.61538ZM4.61538 7.27405C4.61538 4.26077 7.09477 1.81851 10.1538 1.81851V0C6.07569 0 2.76923 3.25696 2.76923 7.27405H4.61538ZM10.1538 1.81851C13.2129 1.81851 15.6923 4.26077 15.6923 7.27405H17.5385C17.5385 3.25696 14.232 0 10.1538 0V1.81851ZM15.6923 7.27405V11.8203H17.5385V7.27405H15.6923ZM15.6923 11.8203C15.6923 13.8289 17.3455 15.4574 19.3846 15.4574C19.3846 15.4574 20.7692 14.5481 19.3846 13.6388C18.3646 13.6388 17.5385 12.8251 17.5385 11.8203H15.6923ZM10.9523 17.7287C10.7871 18.0096 10.4834 18.1815 10.1538 18.1815V20C11.1415 20 12.0535 19.4826 12.5492 18.6416L10.9523 17.7287ZM10.1538 18.1815C9.82431 18.1815 9.52062 18.0096 9.35539 17.7287L7.75846 18.6416C8.25415 19.4826 9.16615 20 10.1538 20V18.1815ZM8.55691 19.0944H11.7508V17.2759H8.55691V19.0944Z" fill="black"/>
<path d="M16.5 11.5L17.5 14.5H3L3.5 11V6L5.5 2.5L8.5 1H12L16 4L16.5 11.5Z" fill="black"/>
</svg>
