<svg width="20" height="18" viewBox="0 0 20 18" fill="none" xmlns="http://www.w3.org/2000/svg">
<path fill-rule="evenodd" clip-rule="evenodd" d="M3 4C3 1.79086 4.79086 0 7 0C9.20914 0 11 1.79086 11 4C11 6.20914 9.20914 8 7 8C4.79086 8 3 6.20914 3 4ZM0 14C0 11.2386 2.23857 9 5 9H9C11.7614 9 14 11.2386 14 14C14 16.2092 12.2092 18 10 18H4C1.79088 18 0 16.2092 0 14ZM11 1C11 0.447715 11.4477 0 12 0C14.2092 0 16 1.79088 16 4C16 6.20912 14.2092 8 12 8C11.4477 8 11 7.55228 11 7C11 6.44772 11.4477 6 12 6C13.1046 6 14 5.10458 14 4C14 2.89542 13.1046 2 12 2C11.4477 2 11 1.55228 11 1ZM14 10C14 9.44771 14.4477 9 15 9C17.7614 9 20 11.2386 20 14C20 16.2092 18.2092 18 16 18C15.4477 18 15 17.5523 15 17C15 16.4477 15.4477 16 16 16C17.1046 16 18 15.1046 18 14C18 12.3432 16.6568 11 15 11C14.4477 11 14 10.5523 14 10Z" fill="black"/>
</svg>
